<svg preserveAspectRatio="xMidYMid meet" data-bbox="20 40 160 120" viewBox="20 40 160 120" height="200" width="200" xmlns="http://www.w3.org/2000/svg" data-type="color" role="presentation" aria-hidden="true" aria-label=""><defs><style>#comp-lnqw1mha svg [data-color="1"] {fill: #206a92;}</style></defs>
    <g>
        <path d="M56.816 160c-9.432 0-18.864-3.609-26.045-10.828-14.361-14.437-14.361-37.927 0-52.364 14.361-14.438 37.729-14.438 52.09 0 14.361 14.437 14.361 37.927 0 52.364C75.68 156.391 66.248 160 56.816 160zm0-66.361c-7.482 0-14.961 2.862-20.657 8.586-11.389 11.45-11.389 30.081 0 41.531 11.389 11.447 29.923 11.446 41.313 0 11.39-11.45 11.39-30.081 0-41.531-5.694-5.724-13.176-8.586-20.656-8.586zm23.351 52.825h.01-.01z" fill="#206a92" data-color="1"></path>
        <path d="M143.184 160c-9.432 0-18.864-3.609-26.045-10.828-14.361-14.437-14.361-37.927 0-52.364 14.361-14.438 37.729-14.438 52.09 0 14.361 14.437 14.361 37.927.001 52.364-7.181 7.219-16.614 10.828-26.046 10.828zm-20.657-16.244c11.39 11.449 29.923 11.449 41.314 0 11.389-11.45 11.389-30.081 0-41.531-11.39-11.449-29.923-11.448-41.313 0-11.39 11.449-11.388 30.081-.001 41.531z" fill="#206a92" data-color="1"></path>
        <path d="M33.462 103.347c-.747 0-1.502-.22-2.164-.679a3.844 3.844 0 0 1-.967-5.33L63.235 49.5a3.799 3.799 0 0 1 5.301-.973 3.844 3.844 0 0 1 .967 5.33l-32.905 47.838a3.795 3.795 0 0 1-3.136 1.652z" fill="#206a92" data-color="1"></path>
        <path d="M166.538 103.347a3.798 3.798 0 0 1-3.138-1.653l-33.019-48.04a3.843 3.843 0 0 1 .968-5.329 3.798 3.798 0 0 1 5.301.974l33.019 48.04a3.843 3.843 0 0 1-.968 5.329 3.78 3.78 0 0 1-2.163.679z" fill="#206a92" data-color="1"></path>
        <path d="M94.92 62.982c-2.105 0-3.81-1.715-3.81-3.83 0-6.336-5.128-11.491-11.431-11.491a11.443 11.443 0 0 0-9.983 5.889 3.8 3.8 0 0 1-5.186 1.471 3.842 3.842 0 0 1-1.464-5.214C66.413 43.759 72.787 40 79.678 40c10.505 0 19.052 8.591 19.052 19.152 0 2.115-1.706 3.83-3.81 3.83z" fill="#206a92" data-color="1"></path>
        <path d="M105.08 62.982c-2.105 0-3.81-1.715-3.81-3.83 0-10.56 8.547-19.152 19.052-19.152 6.772 0 13.091 3.662 16.49 9.556a3.842 3.842 0 0 1-1.385 5.235 3.796 3.796 0 0 1-5.207-1.392c-2.041-3.539-5.834-5.738-9.898-5.738-6.303 0-11.431 5.155-11.431 11.491 0 2.115-1.706 3.83-3.811 3.83z" fill="#206a92" data-color="1"></path>
        <path d="M56.816 144.696c-5.768 0-11.19-2.257-15.268-6.358-8.419-8.463-8.419-22.232 0-30.694 4.078-4.101 9.501-6.358 15.268-6.358s11.19 2.257 15.268 6.358c8.418 8.462 8.417 22.232 0 30.694-4.078 4.1-9.5 6.358-15.268 6.358zm0-35.75c-3.732 0-7.24 1.461-9.879 4.114-5.448 5.476-5.448 14.386 0 19.862a13.846 13.846 0 0 0 9.879 4.114c3.732 0 7.24-1.461 9.879-4.114 5.448-5.476 5.448-14.386 0-19.862a13.842 13.842 0 0 0-9.879-4.114z" fill="#206a92" data-color="1"></path>
        <path d="M143.184 144.696c-5.768 0-11.19-2.257-15.268-6.358-8.419-8.463-8.419-22.232 0-30.694 4.078-4.101 9.501-6.358 15.268-6.358 5.768 0 11.19 2.257 15.268 6.358 8.419 8.463 8.419 22.232 0 30.694-4.078 4.1-9.5 6.358-15.268 6.358zm0-35.75c-3.732 0-7.24 1.461-9.879 4.114-5.448 5.476-5.448 14.386 0 19.862a13.846 13.846 0 0 0 9.879 4.114c3.732 0 7.24-1.461 9.879-4.114 5.448-5.476 5.448-14.386 0-19.862a13.842 13.842 0 0 0-9.879-4.114z" fill="#206a92" data-color="1"></path>
        <path d="M100 116.607c-8.203 0-13.673-2.493-17.736-8.084a3.843 3.843 0 0 1 .83-5.352 3.8 3.8 0 0 1 5.325.834c1.737 2.391 4.208 4.942 11.581 4.942 2.105 0 3.81 1.715 3.81 3.83s-1.705 3.83-3.81 3.83z" fill="#206a92" data-color="1"></path>
        <path d="M100 116.607c-2.105 0-3.81-1.715-3.81-3.83 0-2.116 1.706-3.83 3.81-3.83 7.373 0 9.844-2.551 11.581-4.942a3.8 3.8 0 0 1 5.325-.834 3.844 3.844 0 0 1 .83 5.352c-4.064 5.591-9.533 8.084-17.736 8.084z" fill="#206a92" data-color="1"></path>
        <path d="M114.661 143.548a3.8 3.8 0 0 1-3.08-1.571c-1.737-2.391-4.208-4.942-11.581-4.942-2.105 0-3.81-1.715-3.81-3.83 0-2.116 1.706-3.83 3.81-3.83 8.203 0 13.672 2.493 17.735 8.084a3.843 3.843 0 0 1-.83 5.352 3.78 3.78 0 0 1-2.244.737z" fill="#206a92" data-color="1"></path>
        <path d="M85.339 143.548c-.78 0-1.567-.239-2.245-.737a3.844 3.844 0 0 1-.83-5.352c4.063-5.591 9.532-8.084 17.736-8.084 2.105 0 3.81 1.715 3.81 3.83 0 2.116-1.706 3.83-3.81 3.83-7.373 0-9.844 2.551-11.581 4.942a3.803 3.803 0 0 1-3.08 1.571z" fill="#206a92" data-color="1"></path>
        <path d="M105.08 62.982H94.92c-2.105 0-3.81-1.715-3.81-3.83s1.706-3.83 3.81-3.83h10.161c2.105 0 3.81 1.715 3.81 3.83s-1.706 3.83-3.811 3.83z" fill="#206a92" data-color="1"></path>
    </g>
</svg>